<svg width="24" height="24" viewBox="0 0 24 24" fill="none" xmlns="http://www.w3.org/2000/svg">
<path d="M6.19999 2.44L18.1 14.34L20.22 12.22L21.63 13.63L19.16 16.1L22.34 19.28C22.73 19.67 22.73 20.3 22.34 20.69L21.63 21.4C21.24 21.79 20.61 21.79 20.22 21.4L17 18.23L14.56 20.7L13.15 19.29L15.27 17.17L3.36999 5.27V2.44H6.19999ZM15.89 10L20.63 5.26V2.44H17.8L13.06 7.18L15.89 10ZM10.94 15L8.10999 12.13L5.89999 14.34L3.77999 12.22L2.36999 13.63L4.83999 16.1L1.65999 19.29C1.26999 19.68 1.26999 20.31 1.65999 20.7L2.36999 21.41C2.75999 21.8 3.38999 21.8 3.77999 21.41L6.99999 18.23L9.43999 20.7L10.85 19.29L8.72999 17.17L10.94 15Z" fill="black"/>
</svg>
