<?xml version="1.0" encoding="UTF-8" standalone="no"?>
<!DOCTYPE svg PUBLIC "-//W3C//DTD SVG 20010904//EN"
              "http://www.w3.org/TR/2001/REC-SVG-20010904/DTD/svg10.dtd">

<svg xmlns="http://www.w3.org/2000/svg"
     width="7.55556in" height="7.55556in"
     viewBox="0 0 544 544">
  <path id="Seleção #12"
        fill="black" stroke="white" stroke-width="3"
        d="M 95.00,433.00
           C 95.00,433.00 67.13,397.00 67.13,397.00
             35.36,354.64 7.36,307.64 8.00,253.00
             8.00,253.00 8.92,243.00 8.92,243.00
             11.92,205.41 26.05,166.17 45.45,134.00
             84.41,69.40 150.94,25.87 225.00,13.43
             241.85,10.61 258.94,9.80 276.00,10.00
             276.00,10.00 286.00,10.91 286.00,10.91
             286.00,10.91 306.00,12.73 306.00,12.73
             311.15,13.47 316.61,14.02 321.00,17.00
             291.93,19.35 275.85,20.41 247.00,27.63
             236.01,30.37 223.96,32.72 215.00,40.00
             231.24,35.90 279.22,30.03 296.00,30.00
             331.38,29.94 360.50,30.81 394.00,44.45
             420.84,55.38 446.81,76.27 465.71,98.00
             478.88,113.14 489.30,130.11 498.25,148.00
             512.47,176.44 523.76,210.15 526.09,242.00
             526.09,242.00 527.00,252.00 527.00,252.00
             527.00,252.00 528.00,271.00 528.00,271.00
             528.00,271.00 528.00,275.00 528.00,275.00
             528.00,275.00 527.00,293.00 527.00,293.00
             526.75,313.70 516.09,352.77 507.85,372.00
             499.67,391.09 491.74,404.93 479.98,422.00
             474.34,430.18 468.73,438.90 460.00,444.00
             460.00,444.00 473.69,415.00 473.69,415.00
             480.19,400.84 486.44,383.09 490.37,368.00
             492.80,358.68 496.71,347.53 494.00,338.00
             494.00,338.00 478.00,379.00 478.00,379.00
             457.45,430.36 423.57,485.18 372.00,509.68
             350.61,519.84 331.33,524.93 308.00,528.27
             308.00,528.27 292.00,530.00 292.00,530.00
             292.00,530.00 274.00,531.00 274.00,531.00
             274.00,531.00 262.00,531.00 262.00,531.00
             262.00,531.00 242.00,529.17 242.00,529.17
             242.00,529.17 210.00,524.58 210.00,524.58
             152.18,511.81 99.61,478.19 62.80,432.00
             45.91,410.80 26.06,376.55 20.00,350.00
             26.96,355.10 36.72,372.06 42.63,380.00
             53.58,394.73 59.23,400.23 72.00,413.00
             79.73,420.73 85.63,427.05 95.00,433.00 Z
           M 498.00,264.00
           C 499.69,258.05 499.01,249.36 499.00,243.00
             498.98,232.76 496.64,217.19 494.60,207.00
             482.06,144.33 442.67,87.46 383.00,61.72
             365.82,54.31 344.61,49.13 326.00,47.02
             320.13,46.39 311.19,44.05 306.00,47.02
             349.63,59.64 373.89,66.77 410.00,96.92
             421.81,106.78 436.68,121.84 443.00,136.00
             428.18,127.48 420.78,116.06 403.00,112.00
             406.21,123.27 411.86,125.45 413.00,139.00
             398.64,124.64 386.23,111.91 369.00,100.69
             343.76,84.26 308.99,70.12 279.00,66.28
             263.73,64.33 247.44,64.82 232.00,65.00
             218.83,65.16 191.64,71.29 179.00,75.69
             161.51,81.79 144.51,89.89 129.00,100.08
             129.00,100.08 100.00,121.00 100.00,121.00
             100.00,121.00 105.00,99.00 105.00,99.00
             93.92,104.04 86.54,114.28 79.72,124.00
             65.00,144.97 52.77,170.40 45.58,195.00
             43.16,203.26 36.87,221.11 40.00,229.00
             47.09,215.33 50.32,191.60 61.00,182.00
             61.00,182.00 52.58,225.00 52.58,225.00
             49.89,239.90 46.02,254.78 46.00,270.00
             45.98,285.76 47.82,303.70 51.63,319.00
             54.50,330.55 59.09,352.15 68.00,360.00
             67.02,348.35 58.25,324.22 58.00,303.00
             57.27,239.87 88.69,185.30 135.00,144.17
             146.12,134.29 163.05,124.35 177.00,119.06
             182.84,116.85 199.83,113.14 203.00,109.00
             203.00,109.00 191.00,105.00 191.00,105.00
             191.00,105.00 209.00,103.00 209.00,103.00
             225.16,102.92 234.88,102.82 251.00,106.42
             270.82,110.86 290.86,122.04 307.00,134.13
             333.49,153.97 354.67,175.39 361.00,209.00
             361.00,209.00 307.00,190.23 307.00,190.23
             293.94,187.19 279.39,186.02 266.00,186.00
             266.00,186.00 251.00,185.00 251.00,185.00
             251.00,185.00 225.00,186.00 225.00,186.00
             220.31,186.01 205.07,188.12 202.09,186.74
             199.10,185.35 196.30,180.60 193.83,178.10
             189.67,173.90 183.89,171.53 178.00,171.21
             168.99,170.71 161.31,177.36 155.00,182.95
             141.67,194.77 128.89,208.83 121.00,225.00
             115.80,212.49 123.61,202.96 121.00,193.00
             116.21,198.27 113.10,207.24 110.69,214.00
             105.29,229.18 100.03,252.95 100.00,269.00
             99.99,275.50 98.81,286.50 102.00,292.00
             103.18,287.85 102.98,286.19 103.00,282.00
             103.06,269.74 107.45,245.84 113.00,235.00
             113.00,235.00 115.00,250.00 115.00,250.00
             120.19,246.92 125.14,232.84 128.31,227.00
             135.79,213.21 147.13,200.59 159.00,190.43
             162.71,187.25 169.30,181.55 174.00,180.42
             181.16,178.68 187.42,183.87 190.43,190.00
             191.81,192.80 191.83,196.70 195.22,197.71
             198.06,198.55 208.53,196.89 212.00,196.42
             219.96,195.36 227.96,194.91 236.00,195.00
             252.55,195.20 278.16,199.91 292.00,209.10
             313.67,223.49 332.96,258.95 334.82,285.00
             335.12,289.29 333.02,300.60 331.85,305.00
             323.58,335.96 291.33,358.76 260.00,360.91
             247.31,361.78 230.18,357.46 219.00,351.51
             207.07,345.17 195.51,335.34 188.10,324.00
             188.10,324.00 176.00,302.00 176.00,302.00
             176.76,336.71 210.36,363.26 242.00,370.34
             251.83,372.53 259.10,372.02 269.00,372.00
             289.92,371.97 303.71,363.38 321.00,353.00
             321.00,353.00 309.00,378.00 309.00,378.00
             321.08,376.13 331.46,368.54 341.00,361.37
             368.22,340.92 386.29,310.05 393.58,277.00
             395.12,270.02 397.92,252.82 398.00,246.00
             398.07,239.53 397.18,236.09 400.00,230.00
             400.00,230.00 403.58,241.00 403.58,241.00
             406.97,252.57 410.86,271.06 411.00,283.00
             411.00,283.00 411.00,303.00 411.00,303.00
             410.98,314.70 407.65,331.67 404.42,343.00
             395.49,374.29 376.39,410.06 352.00,431.83
             338.77,443.64 313.95,456.99 297.00,462.67
             284.60,466.82 271.20,470.84 258.00,471.00
             258.00,471.00 219.00,470.00 219.00,470.00
             213.64,469.93 207.03,469.63 203.56,464.94
             200.14,460.33 202.22,455.87 195.90,451.09
             190.16,446.75 175.07,440.09 168.00,438.16
             168.00,438.16 155.00,435.23 155.00,435.23
             145.83,432.40 138.78,425.54 130.00,421.88
             126.38,420.36 120.77,419.02 117.15,421.17
             111.91,424.29 115.79,430.30 118.06,434.00
             124.37,444.25 132.90,454.57 142.00,462.42
             149.64,469.02 156.35,474.60 165.00,479.94
             191.92,496.56 228.36,507.00 260.00,507.00
             260.00,507.00 260.00,505.00 260.00,505.00
             251.09,503.63 242.04,500.72 235.00,495.00
             235.00,495.00 260.00,495.00 260.00,495.00
             290.24,494.95 330.91,481.54 357.00,466.57
             373.93,456.86 386.24,446.76 400.00,433.00
             417.53,415.47 431.91,396.37 442.74,374.00
             471.15,315.35 470.09,247.19 444.00,188.00
             467.09,191.57 483.58,217.47 490.48,238.00
             490.48,238.00 498.00,264.00 498.00,264.00 Z
           M 276.00,154.00
           C 258.20,149.99 256.12,150.00 238.00,150.00
             240.05,152.70 241.00,153.87 244.00,155.64
             251.86,160.26 270.57,163.29 276.00,154.00 Z
           M 275.00,282.00
           C 274.08,273.29 268.31,265.66 263.00,259.00
             247.99,240.21 228.07,233.30 205.00,230.92
             197.59,230.04 190.36,229.21 183.00,230.92
             183.00,230.92 192.00,242.00 192.00,242.00
             170.61,246.30 151.32,257.29 146.00,280.00
             154.51,275.43 159.46,266.88 170.00,260.46
             183.06,252.51 196.48,251.33 211.00,255.43
             211.00,255.43 234.00,263.00 234.00,263.00
             234.00,263.00 221.00,246.00 221.00,246.00
             234.64,249.98 243.87,254.34 255.00,263.46
             255.00,263.46 275.00,282.00 275.00,282.00 Z
           M 276.00,282.00
           C 276.00,282.00 275.00,282.00 275.00,282.00
             275.00,282.00 276.00,283.00 276.00,283.00
             276.00,283.00 276.00,282.00 276.00,282.00 Z
           M 69.00,360.00
           C 69.00,360.00 68.00,360.00 68.00,360.00
             68.00,360.00 69.00,361.00 69.00,361.00
             69.00,361.00 69.00,360.00 69.00,360.00 Z
           M 153.00,446.00
           C 164.36,447.78 171.36,453.62 176.00,464.00
             169.24,460.70 156.55,452.50 153.00,446.00 Z" />
</svg>
