<svg width="24" height="24" viewBox="0 0 24 24" fill="none" xmlns="http://www.w3.org/2000/svg">
<g clip-path="url(#clip0)">
<path d="M4.2 19.0526L13.8 13.0526L13.5 15.2105L13.2287 17.0573C13.2136 17.1602 13.2934 17.2526 13.3974 17.2526C13.6622 17.2526 13.9233 17.1909 14.1601 17.0725L15 16.6526L16.3914 15.725C16.6631 15.5438 16.9163 15.3363 17.1473 15.1053C18.0774 14.1751 18.6 12.9136 18.6 11.5981V11.131C18.6 10.4176 18.4826 9.70601 18.1861 9.0571C17.9706 8.58523 17.6915 8.04118 17.4 7.65258C15.8282 5.5568 13.9712 5.15428 11.4 4.65258C10.4851 4.47406 9.29321 4.47309 8.32601 4.51722C7.18118 4.56946 6.07604 4.91456 5.051 5.42707L4.2 5.85258L2 7.21048L0 8.25258L1.8 6.45258L2.94161 5.31097C3.37959 4.87299 3.85497 4.47505 4.3821 4.1498C5.35083 3.55207 7.03962 2.59267 8.4 2.25258C10.338 1.76807 13.3327 2.10971 14.1736 2.22098C14.3258 2.24113 14.4753 2.26764 14.6259 2.29776L15.8802 2.54862C16.8874 2.75005 17.8597 3.10124 18.7448 3.62237C19.2954 3.94652 19.9155 4.32399 20.4 4.65258C20.7468 4.88774 21.1525 5.18491 21.5306 5.46967C22.3713 6.10278 23.0055 6.96627 23.3963 7.94342C23.7918 8.93217 23.9207 10.0074 23.7701 11.0617L23.681 11.6856C23.4986 12.9624 22.907 14.1456 21.995 15.0576C21.3407 15.7119 20.543 16.2049 19.665 16.4976L19.2 16.6526L13.7294 18.6277C13.6018 18.6737 13.5342 18.8132 13.5771 18.9419L14 20.2105L14.4 21.4526L4.2 19.0526Z" fill="black" stroke="black" stroke-width="0.25"/>
</g>
<defs>
<clipPath id="clip0">
<rect width="24" height="24" fill="white"/>
</clipPath>
</defs>
</svg>
