<?xml version="1.0" encoding="utf-8"?>

<!DOCTYPE svg PUBLIC "-//W3C//DTD SVG 1.1//EN" "http://www.w3.org/Graphics/SVG/1.1/DTD/svg11.dtd">
<svg version="1.1" id="tank" xmlns="http://www.w3.org/2000/svg" xmlns:xlink="http://www.w3.org/1999/xlink" x="0px" y="0px" viewBox="0 0 2608.19 1525.509" enable-background="new 0 0 2608.19 1525.509" xml:space="preserve" >
<path d="M429.439,56.426c8.19-26.398,38.322-43.176,64.963-29.054c30.017,17.199,25.814,15.181,33.027,14.978
	c10.749-0.69,21.554-0.156,32.281-1.235c4.562-0.089,9.369-0.801,13.809,0.401c6.343,4.24,13.987,7.355,18.383,13.887
	c0.801,8.746-0.445,17.604,0.245,26.372c25.56,15.167,51.977,28.954,77.715,43.854c15.015,8.063,18.398,33.033-7.511,56.851
	c12.484,15.774,9.08,8.978,10.338,17.192c4.34,2.303,8.702,4.573,13.008,6.944c-0.178,18.194-0.345,36.376-0.79,54.57
	c-0.757,0.111-2.281,0.323-3.049,0.434c10.76,5.241,21.621,10.26,32.392,15.456c5.041,2.648,11.05,1.424,16.235,3.616
	c10.415,4.284,20.82,8.579,31.002,13.398c9.592,4.384,16.035,13.509,25.716,17.737c78.313,36.845,76.287,37.555,83.969,38.001
	c6.12,0.367,11.461,3.639,17.036,5.864c7.778,3.461,16.202,6.009,22.745,11.695c4.24,3.138,7.878,7.144,12.741,9.369
	c57.198,27.508,33.989,14.577,50.197,20.219c5.575-2.248,11.027-4.763,16.591-7.044c-1.68-2.448-3.361-4.885-5.13-7.255
	c0.145-2.86-0.412-5.909,0.779-8.613c8.357-1.491,16.958-1.068,25.382-0.211c5.796,0.995,29.078,7.992,35.119,11.294
	c3.861,2.181,8.557,1.213,12.585,2.96c4.529,1.869,8.924,4.073,13.498,5.898c0.301-9.258-0.445-18.55,0.223-27.786
	c13.598-1.769,27.296-3.016,41.039-2.437c15.523,1.714,31.257,0.423,46.758,2.615c-0.056,2.993-0.1,5.975-0.156,8.98
	c5.96-5.481,5.007-5.127,20.519-4.885c1.213-2.904,2.426-5.82,3.628-8.724c-1.714-0.234-3.416-0.445-5.107-0.645
	c-0.467-4.24,1.691-9.726-1.914-12.93c-0.1-0.501-0.3-1.502-0.401-2.003c2.715-1.636,5.72-2.86,8.969-2.671
	c14.466-0.134,28.998-0.746,43.409,0.779c0.078,3.249,0.1,6.499,0.133,9.748c1.68,1.224,3.349,2.47,5.03,3.728
	c0.178-3.06,0.423-6.098,0.801-9.125c3.527-0.122,7.077-0.178,10.627-0.312c1.28,8.724,1.347,17.582,2.615,26.328
	c5.03,0.011,10.07,0.011,15.111,0.022c0.111,0.823,0.345,2.47,0.456,3.305c38.411,0.111,7.268,0.219,51.854-2.203
	c0.222,3.583,0.501,7.166,0.846,10.738c8.301,0.768,16.636,1.057,24.837,2.815c-0.434,9.525,0.801,18.995,1.524,28.475
	c9.87,0.178,19.763-0.078,29.655-0.067c3.761,0.289,6.332-3.472,10.104-3.249c32.649-0.629,29.934-0.193,35.196,2.96
	c27.496,0.156,54.993,0.067,82.489,0.612c0.111-3.004,0.189-5.998,0.189-9.002c3.472-4.484,9.558-4.407,14.666-5.363
	c3.798-5.222,3.226-160.333,4.818-243.082c1.168-0.067,2.348-0.122,3.55-0.178c0,0-1.502,131.087-2.404,240.011
	c4.529-1.447,9.013-3.027,13.453-4.763c0.045-3.65,0.089-7.3,0.156-10.938c12.959,0.072,18.561,2.187,21.432-0.078
	c5.731-4.24,12.863-5.619,19.329-8.379c6.32-2.025,12.296-5.753,19.117-5.809c1.102-5.408,6.031-9.692,11.673-9.381
	c71.697-1.054,64.872-3.106,69.325,11.996c10.282,2.392,19.674,7.5,29.588,11.05c1.269-61.013,2.259-122.036,3.65-183.038
	l2.526,0.256c-1.124,61.369-2.426,122.726-3.539,184.084c1.313,0.423,2.648,0.857,4.017,1.302c2.515-1.013,5.096-2.103,7.889-2.081
	c7.945-0.345,15.857-1.246,23.835-1.146c-0.167,4.696-0.3,9.392-0.3,14.099c4.206,1.413,8.88,2.292,12.107,5.631
	c5.174-0.768,11.795,0.679,13.954,5.975c0.378,18.828,2.059,37.756,6.621,56.072c0.553,3.353,0.962,2.546,27.786,23.513
	c4.34,3.238,8.368,7.266,13.876,8.39c4.785,1.057,7.99,5.197,9.525,9.625c0.79,0.623,1.602,1.257,2.448,1.892
	c6.398-2.96,11.773-7.6,17.648-11.439c3.75,0.49,8.212-0.245,11.139,2.737c6.628,6.144,11.883,20.313-6.532,25.649
	c0.99,0.935,1.958,1.858,3.016,2.804c7.12-4.766,18.543-10.735,22.099-2.793c3.294,5.352,4.685,11.651,5.041,17.871
	c-2.604,3.249-5.942,6.02-10.304,6.165c3.249,5.341,4.451,12.374,0.467,17.693c0.39,1.046,0.801,2.103,1.246,3.171
	c3.783-1.647,8.68-3.149,12.307-0.334c4.674,5.631,6.209,13.208,6.665,20.352c-2.259,2.66-4.774,5.341-8.312,6.142
	c2.259,4.351,3.172,9.67,6.042,13.531c68.944,5.164,53.905,2.638,65.341-0.178c0.703-20.55,10.007-48.026,28.008-58.286
	c5.853-3.739,12.997-3.539,19.674-4.006c8.234-1.491,16.78-1.124,24.781,1.402c7.723-0.49,15.456,0.345,23.201,0.401
	c4.918-0.312,9.714,1.191,14.633,1.335c15.189,0.69,30.401,0.534,45.59,1.391c5.208,0.167,10.471,0.668,15.668-0.211
	c4.763-1.079,9.603,1.113,14.377-0.3c11.083,2.493,22.266-1.691,33.416-0.133c3.839,0.056,7.177,2.793,11.094,2.192
	c5.564-0.623,11.128,0.601,16.714,0.1c5.675-0.623,11.384,2.637,16.936,0.323c10.571-3.45,21.465,0.423,32.07,1.547
	c6.042-1.102,12.074,0.634,18.172-0.122c10.168,2.398,96.718,3.895,99.202,3.205c3.472-0.968,6.921,0.401,10.349,1.013
	c4.818-2.392,9.993,0.745,14.877-1.091c5.764-1.625,11.829-0.801,17.715-0.356c3.772,0.334,7.021,3.405,10.949,2.637
	c39.11-6.921,46.288,44.344,40.972,83.869c1.002,0.052,80.668,4.139,86.384,5.486c-0.122,3.06-0.256,6.12-0.401,9.191
	c-0.757,0.056-2.292,0.145-3.049,0.2c-2.758,59.676-3.54,48.742-2.47,61.58c5.375-0.79,10.783-1.614,16.246-1.591
	c-0.156,1.992-0.289,3.984-0.4,5.987c16.651,7.224,22.911,31.741,23.279,38.112c-1.213,4.184-5.631,4.874-9.358,4.406
	c-2.971-1.923,7.021-0.68-134.444-13.676c-11.506-0.633-17.358-3.61-35.964,0.601c10.115,1.725,20.464,1.97,30.579,3.917
	c4.362,0.879,8.824,0.568,13.264,0.59c9.292,0.501,18.483,2.426,27.83,2.214c6.777,0.49,13.253,2.849,19.896,4.229
	c5.586,1.057,10.972-1.881,16.603-1.257c0.723,0.857,1.447,1.747,2.159,2.693c1.324,0.912,2.693,1.836,4.073,2.782
	c1.235,0.133,2.504,0.267,3.805,0.423c0.156,0.59,0.445,1.78,0.601,2.381c1.246,1.458,1.691,3.327,2.137,5.185
	c4.206,0.512,8.501,0.556,12.618,1.714c1.747,3.082,0.078,6.51-0.79,9.592c1.958,4.073,4.062,8.09,5.965,12.218
	c2.025,0.378,4.173,0.579,6.165,1.324c1.836,3.895-1.146,7.322-1.936,10.938c0.668,6.821,2.036,13.576,2.593,20.419
	c1.357,0.122,2.737,0.256,4.15,0.412c-0.078,3.494,0.668,8.357-3.716,9.458c-1.213,7.266-1.447,14.655-2.715,21.91
	c-0.178,1.914-2.47,2.27-3.717,3.294c2.136,0.879,6.053,0.323,6.087,3.55c0.278,2.337-0.835,4.551-1.458,6.754
	c-0.823-0.1-2.459-0.289-3.283-0.389c-1.847,7.177-4.051,14.254-5.909,21.432c-2.537,0.757-5.152,1.324-7.689,1.892
	c2.682,0.734,5.397,1.213,8.19,1.625c1.135,3.171,0.334,6.398-1.28,9.258c-1.747-0.323-3.461-0.623-5.141-0.924
	c-2.76,3.561-5.341,7.244-7.901,10.938c-0.823,0.189-2.47,0.579-3.294,0.768c0.835,0.868,1.703,1.747,2.604,2.637
	c-0.022,2.715,0.156,5.853-2.114,7.823c-2.092,0-4.139-0.267-6.154-0.412c-3.071,3.405-5.542,7.867-10.137,9.358
	c2.949,3.027,1.847,7.277-0.089,10.504c-2.115-0.356-4.184-0.69-6.243-1.035c-3.127,3.617-5.931,7.834-10.427,9.87
	c2.904,2.927,1.881,7.044,0.055,10.249c-2.147-0.256-4.261-0.501-6.331-0.757c-3.316,3.516-6.02,8.001-10.694,9.848
	c2.737,3.249,1.747,7.355-0.167,10.749c-2.103-0.423-4.162-0.812-6.209-1.235c-3.327,3.65-6.109,8.034-10.549,10.438
	c2.159,3.416,1.358,7.433-0.846,10.593c-1.925-0.356-3.772-0.779-5.675-0.879c-4.017,3.127-6.454,8.056-11.116,10.415
	c2.147,3.55,1.424,7.622-0.801,10.938c-1.958-0.501-3.861-0.979-5.764-1.48c-3.628,3.872-6.677,8.49-11.45,11.072
	c2.192,3.194,2.159,7.734-0.801,10.46c-2.048-0.078-4.051-0.412-6.02-0.657c-3.672,3.795-6.621,8.479-11.328,11.128
	c2.537,3.26,1.58,7.322-0.434,10.571c-2.181-0.245-4.328-0.568-6.431-0.846c-3.672,3.895-6.788,8.468-11.45,11.25
	c1.97,3.605,1.413,7.656-0.868,10.972c-2.248-0.445-4.429-0.89-6.621-1.335c-2.47,4.128-7.467,4.585-11.428,6.532
	c1.124,3.728,0.935,7.789-1.947,10.716c-2.326-0.534-4.629-1.057-6.899-1.569c-2.181,3.928-6.61,2.993-10.137,1.892
	c-0.901,2.036-1.335,4.529-3.349,5.797c-2.37-0.156-4.629-0.679-6.91-1.124c-2.326,3.783-6.788,2.815-10.36,1.914
	c-0.924,1.836-1.191,4.251-2.938,5.519c-2.337,0.601-4.64-0.679-6.955-0.568c-6.094,2.595-1.937,3.257-11.183,1.547
	c-0.846,1.981-1.157,4.384-2.927,5.809c-2.459,0.078-4.829-0.423-7.177-0.868c-1.513,1.135-3.049,2.214-4.595,3.26
	c-2.159-0.634-4.34-1.191-6.476-1.747c-0.801,2.593-2.048,5.019-3.984,6.955c-2.203-0.69-4.417-1.324-6.632-1.869
	c-2.481,4.662-7.689,2.626-11.717,1.858c-0.779,2.448-1.135,5.697-3.85,6.81c-2.37-0.367-4.662-1.068-6.955-1.625
	c-0.411,0.723-1.257,2.159-1.68,2.882c-3.316,0.334-6.599-0.278-9.759-1.157c-0.89,2.403-1.091,5.686-3.839,6.788
	c-2.348-0.111-4.595-0.701-6.821-1.146c-1.424,1.157-2.838,2.292-4.262,3.405c-2.181-0.568-4.362-1.124-6.499-1.658
	c-1.046,2.092-1.28,5.063-3.639,6.176c-2.37,0.122-4.64-0.656-6.899-1.09c-3.138,4.351-8.379,2.726-12.663,1.502
	c-1.113,2.326-1.202,5.742-3.706,7.066c-2.582,0.167-5.052-0.757-7.511-1.28c-0.412,0.568-1.224,1.691-1.625,2.259
	c-1.091,0.39-2.159,0.813-3.194,1.246c-2.381-0.645-4.774-1.291-7.099-1.936c-1.124,2.693-2.226,5.419-4.051,7.723
	c-2.448-0.556-4.907-1.102-7.311-1.591c-3.093,4.551-8.579,2.76-12.841,1.391c-1.347,2.548-1.836,5.975-4.496,7.556
	c-2.604,0.312-5.119-0.868-7.611-1.335c-0.334,0.679-1.001,2.014-1.335,2.693c-3.805,1.024-7.6-0.145-11.239-1.179
	c-1.636,2.682-2.214,6.343-5.141,7.978c-2.504-0.334-4.918-1.068-7.322-1.691c-0.256,0.634-0.757,1.914-1.012,2.559
	c-3.884,1.591-7.845,0.345-11.595-0.89c-1.502,2.281-2.448,4.874-4.039,7.077c-2.315,2.359-5.72-0.156-8.446-0.434
	c-2.671,4.685-8.346,3.104-12.418,1.613c-0.89,0.556-1.758,1.135-2.593,1.725c-1.035,2.459-1.725,6.064-4.84,6.61
	c-2.27-0.356-4.451-1.146-6.599-1.769c-0.367,0.623-1.09,1.892-1.458,2.515c-1.347,0.389-2.648,0.812-3.939,1.246
	c-2.671-0.757-5.319-1.491-7.967-2.192c-1.992,2.893-3.494,6.087-5.508,8.969c-2.459-0.612-4.874-1.257-7.255-1.981
	c-5.126,4.693-4.134,4.098-14.177,1.491c-1.769,2.248-3.004,4.84-4.518,7.244c-2.025,3.26-6.02,0.534-8.88,0.133
	c-1.491,1.469-2.982,3.349-5.263,3.316c-3.049-0.089-5.931-1.558-8.969-1.358c-3.071,2.181-4.006,6.198-6.521,8.924
	c-2.459-0.612-4.874-1.224-7.289-1.869c-3.405,5.03-9.558,2.849-14.232,1.313c-3.249,2.548-4.017,7.311-7.678,9.314
	c-2.326-0.067-4.484-1.035-6.665-1.602c-5.199,5.037-5.892,3.675-14.644,1.324c-3.405,2.815-4.674,7.344-8.134,10.104
	c-2.359-0.79-4.718-1.536-7.066-2.237c-0.389,0.668-1.146,2.014-1.524,2.682c-3.995,1.947-8.034,0.078-11.996-0.801
	c-4.829,1.302-5.697,7.433-9.681,10.048c-2.125-0.779-4.251-1.48-6.365-2.148c-6.338,6.257-8.333,2.283-15.089,1.702
	c-4.251,2.281-5.275,7.734-9.414,10.182c-2.17-0.768-4.34-1.435-6.499-2.125c-1.725,1.903-3.939,3.183-6.287,4.117
	c-2.938-0.868-5.82-2.348-8.891-2.392c-4.362,2.092-5.441,7.578-9.38,10.048c-2.47,0.2-4.84-1.001-7.199-1.458
	c-2.871,3.561-7.723,4.073-11.695,2.203c-5.664-2.671-8.535,4.451-11.439,7.923c-2.17,3.427-6.332,0.701-9.28,0.111
	c-1.858,1.925-4.217,3.149-6.654,4.139c-3.527-0.734-7.711-4.206-11.005-1.28c-3.416,2.927-5.352,7.199-8.969,9.937
	c-2.359-0.823-4.707-1.614-7.033-2.437c-0.568,0.835-1.124,1.691-1.647,2.571c-1.669,0.534-3.349,1.079-4.963,1.669
	c-2.76-0.812-5.419-1.981-8.246-2.459c-5.542,2.092-7.678,8.301-12.374,11.55c-2.359-0.857-4.673-1.658-6.999-2.493
	c-0.367,0.679-1.113,2.036-1.48,2.715c-4.44,2.181-9.158,0.979-13.264-1.291c-5.72,2.426-8.212,8.546-13.086,11.951
	c-2.337-0.356-4.529-1.213-6.732-1.914c-3.839,4.907-10.649,4.318-15.434,1.224c-6.81,2.898-10.246,10.288-13.765,12.207
	c-2.426-0.033-4.618-1.269-6.843-2.014c-2.081,2.181-4.818,3.416-7.6,4.384c-2.915-1.001-5.82-1.992-8.691-3.027
	c-5.786,3.016-9.202,8.791-14.165,12.808c-2.192-0.723-4.329-1.747-6.621-1.925c-2.381,1.424-4.751,2.871-7.255,4.028
	c-2.938-0.957-5.842-1.947-8.657-3.127c-5.654,2.126-10.325,8.569-15.401,13.242c-2.337-0.79-4.64-1.602-6.955-2.359
	c-3.806,5.186-10.838,4.306-15.723,1.324c-4.729,1.135-7.444,5.341-11.172,8.034c-6.176,7.499-5.342,5.017-10.371,3.828
	c-2.381-1.346-4.073,1.769-6.231,2.359c-3.817,2.148-7.912-0.189-11.461-1.669c-4.273,0.746-7.322,3.839-9.848,7.133
	c-0.579,0.2-1.747,0.601-2.337,0.79c-1.38,2.448-3.149,5.174-6.187,5.608c-2.281-0.434-4.373-1.458-6.454-2.37
	c-0.545,0.901-1.068,1.825-1.569,2.771c-2.148,0.534-4.24,1.335-6.443,1.424c-3.071-0.278-5.775-2.036-8.824-2.27
	c-5.007,0.99-7.456,6.053-11.729,8.357c-1.691,2.214-3.717,4.128-5.92,5.82c-2.159-0.901-4.295-1.792-6.398-2.726
	c-2.604,3.305-7.255,4.885-11.283,3.628c-3.562-1.015-8.093-4.868-15.356,4.841c-1.135,0.467-2.259,0.935-3.349,1.435
	c-1.58,2.548-3.783,4.618-6.176,6.41c-2.181-0.846-4.34-1.669-6.488-2.504c-9.325,8.793-14.215,0.03-19.195,2.014
	c-4.306,0.835-6.243,5.275-9.948,7.122c-3.583,1.502-4.718,6.131-8.702,7.021c-2.203-0.345-4.162-1.38-6.153-2.226
	c-2.214,2.515-5.408,3.527-8.49,4.484c-3.873-0.979-7.845-3.505-11.907-2.081c-4.763,1.513-6.777,7.233-11.94,7.901
	c-6.144,9.821-8.799,5.556-12.886,4.206c-9.716,8.99-14.721-0.185-20.542,2.214c-5.152,1.28-7.121,7.311-12.396,8.279
	c-2.637,2.226-4.24,6.376-8.201,6.654c-1.936-0.389-3.717-1.257-5.53-1.947c-11.262,8.538-14.85-0.391-20.464,1.769
	c-5.886,1.302-8.234,8.323-14.477,8.858c-5.722,10.153-9.981,5.804-13.264,4.44c-9.574,9.409-15.925-0.98-22.188,2.515
	c-5.441,1.669-7.5,8.78-13.776,8.379c-1.614,3.305-4.217,6.855-8.156,7.277c-2.036-0.501-3.884-1.491-5.775-2.292
	c-0.378,0.512-1.146,1.536-1.525,2.048c-2.481,0.723-4.952,1.491-7.4,2.303c-4.529-1.035-9.292-3.795-13.921-1.625
	c-3.928,1.28-6.087,5.03-9.258,7.366c-1.647,0.378-3.305,0.556-4.941,0.812c-1.502,3.06-3.427,6.654-7.199,7.166
	c-2.971,1.124-5.441-1.268-7.878-2.515c-2.938,2.693-7.01,2.982-10.738,2.136c-10.161-4.208-9.871-11.175-21.966-1.947
	c-2.982-0.601-6.098-1.079-8.891,0.467c-3.795,2.248-7.021-1.447-10.493-2.392c-1.436,0.501-2.771,1.213-4.106,1.903
	c-8.635-1.792-15.456-7.611-22.878-11.973c-1.558,0.712-3.116,1.447-4.651,2.203c-5.542-2.815-11.884-3.294-17.303-6.321
	c-7.118,4.353-14.965-2.489-27.83-10.471c-2.036,0.612-4.062,2.66-6.265,1.703c-5.475-2.047-11.206-3.538-16.28-6.51
	c-1.68,0.79-3.271,2.693-5.297,1.992c-8.602-1.558-14.8-8.223-22.4-11.962c-2.793-0.167-5.486,2.248-8.257,0.779
	c-5.241-2.003-10.983-2.904-15.623-6.231c-1.358,0.835-2.715,1.669-4.05,2.537c-2.782-0.913-5.575-1.781-8.39-2.526
	c-5.319-3.75-10.816-7.233-16.28-10.76c-2.838,0.846-5.842,2.86-8.791,1.235c-5.252-2.237-11.217-2.749-15.835-6.32
	c-1.424,0.835-2.838,1.669-4.251,2.515c-9.214-1.458-16.013-8.101-23.735-12.685c-2.593-1.769-5.631,0.601-8.257,1.235
	c-6.398-2.771-13.565-3.706-19.418-7.611c-1.369,0.901-2.737,1.792-4.095,2.715c-8.835-1.814-15.868-7.522-23.056-12.563
	c-2.904-2.771-6.721-0.156-9.859,0.768c-6.554-2.982-13.921-3.917-20.096-7.667c-1.914,0.79-3.806,2.648-6.02,1.847
	c-9.614-1.58-16.146-9.514-24.447-13.832c-2.782-0.033-5.286,1.324-7.789,2.359c-6.966-2.615-14.165-4.729-20.809-8.09
	c-1.858,0.534-3.661,1.458-5.619,1.513c-9.726-2.659-17.003-10.048-25.282-15.356c-0.634,0.323-1.903,0.979-2.526,1.302
	c-15.285-3.514-20.257-10.636-27.897-10.248c-3.093-0.245-6.409,0.167-9.258-1.291c-9.18-5.074-16.491-13.208-26.428-16.925
	c-6.098-3.705-11.506-8.435-16.78-13.208c-10.059-8.346-22.211-13.776-31.669-22.889c-5.753-5.742-14.399-7.456-19.584-13.876
	c0.267-1.613,0.601-3.194,1.013-4.729c-7.878-5.82-16.914-10.538-22.956-18.438c0-0.579-0.011-1.747-0.022-2.337
	c-5.241-6.009-13.509-8.68-18.427-15.067c-1.346-3.149-1.491-6.832-3.739-9.547c-2.326-2.771-3.16-6.365-4.974-9.414
	c-2.993-2.771-6.532-4.863-9.692-7.422c-0.601-3.55-2.637-7.278-1.191-10.838c-0.359-8.236,7.76-12.854-2.493-25.293
	c-2.626,6.243-5.007,12.585-7.6,18.839c-5.853-1.703-12.04-2.303-17.671-4.629c-22.976-14.973-29.436-22.223-37.889-24.803
	c-3.427-1.113-6.665-2.671-9.848-4.306c0.434-1.079,0.857-2.148,1.302-3.205c-24.226-18.867-23.799-14.029-33.116-19.117
	c0.245-0.868,0.734-2.604,0.979-3.472c-27.697-20.015-19.259-10.903-30.412-17.481c0.423-1.057,0.857-2.092,1.291-3.116
	c-8.568-5.975-17.192-11.862-25.582-18.082c1.636-4.54,3.472-9.013,5.375-13.442c-3.85-1.97-8.056-2.771-12.363-2.226
	c-4.918-1.068-9.247-4.062-13.542-6.599c-4.473-0.234-7.923-3.461-12.174-4.44c-4.529-1.057-8.835-2.849-13.142-4.562
	c-8.355,0.832-4.188,2.146-19.306-7.511c-0.857,0.256-1.714,0.523-2.559,0.801c-23.273-13.761-20.826-12.255-28.275-10.994
	c-2.515-1.513-4.93-3.149-7.277-4.896c-4.685-3.605-10.471-5.531-14.8-9.648c-4.306-4.373-10.26-6.565-14.533-10.949
	c-3.238-3.338-7.678-4.941-11.372-7.611c-1.747-1.024-1.102-3.372-1.435-4.996c-1.947-1.513-3.995-2.893-5.909-4.418
	c-3.806-2.993-5.063-8.19-9.28-10.76c-4.473-2.604-8.924-5.33-12.641-8.969c-0.022-1.691-0.045-3.361-0.078-5.019
	c-1.903-2.047-3.884-4.14-4.429-6.977c-1.936-1.613-4.106-3.027-5.686-5.007c-2.882-5.909,1.202-11.973,1.057-18.038
	c-18.048-5.28-43.839-11.741-54.525-19.863c-5.875-4.217-11.662-8.735-18.783-10.638c-0.211-0.746-0.634-2.259-0.857-3.016
	c-3.483-3.572-8.457-4.863-12.997-6.521c0.033-0.712,0.111-2.125,0.145-2.838c-4.151-3.016-8.791-5.252-13.687-6.766
	c0.011-0.69,0.056-2.081,0.067-2.782c-2.771-1.747-5.453-3.628-8.145-5.486c23.853-61.821,83.354-109.816,152.96-122.036
	c13.709-1.28,27.474-1.97,41.183-3.238c-0.033-2.515-0.078-5.019-0.111-7.511c56.506-3.984,113.001-8.134,169.495-12.396
	c-8.754-14.554-5.586-32.458,11.84-38.535c-0.056-0.79-0.167-2.359-0.223-3.149c5.72,0.011,11.217,2.203,16.97,1.691
	c12.964-0.723,25.916-1.836,38.891-2.437c0.045-0.69,0.134-2.048,0.178-2.737c10.616,0.423,20.664,4.473,31.09,6.176
	c1.636-0.312,2.893-1.524,4.262-2.381c8.067-5.942,16.669-11.128,25.516-15.812c-2.326-0.401-4.64-0.823-6.944-1.235
	c-0.145-0.779-0.434-2.348-0.579-3.127c8.123-1.224,16.324-3.594,24.57-2.159c6.71-1.002,13.064-3.772,19.807-4.707
	c7.578-0.946,15.278-0.434,22.845-1.502c7.711-3.639,13.787-10.226,21.61-13.654c5.883-0.799,303.928-16.905,304.929-16.958
	c-0.401-1.313-0.801-2.637-1.18-3.928c-0.835,0.022-2.526,0.078-3.372,0.111c-0.067-2.404-0.111-4.785-0.145-7.166
	c3.305-1.747,6.766-3.249,10.493-3.839c-0.189-9.058-1.547-18.06-1.614-27.107c1.091-4.763,2.682-9.436,2.504-14.399
	c-3.082-0.189-6.465,0.545-9.247-1.091c0.211-1.769,0.534-3.505,0.857-5.241c-12.919-3.55-25.46-8.368-38.379-11.907
	c-5.441,0.067-11.283-0.912-15.3-4.896c1.936-7.211,3.783-14.522,6.955-21.298c1.424-0.512,2.915-0.734,4.407-1.057
	c2.392,1.09,4.796,2.17,7.144,3.405c0.645-0.378,1.302-0.746,1.97-1.113c-8.229-5.729-5.508-10.456-1.58-20.085
	c-11.651,0.779-23.19-1.447-34.629-3.383c-11.784-1.669-21.343-9.837-33.016-11.829c-25.304-5.82-50.586-11.74-75.912-17.459
	c-17.125-4.629-35.119-4.651-52.277-9.191c-40.514-13.033,60.569,11.345-184.595-45.434c-20.116-5.286-47.894-5.667-68.045-12.196
	c-6.866-2.415-13.053-6.632-20.23-8.157c-6.632-1.647-13.42-2.704-19.896-4.863c-26.063-11.882-28.565-12.269-31.847-14.889
	c-64.702-52.327-8.392-31.231-69.358-42.418c-56.212-14.067-34.53-8.656-61.791-19.963c-18.726-9.901-26.697-2.854-81.387-32.081
	c-9.669-5.434-11.305-2.701-36.443-26.205c-20.204-26.515-17.927-27.806-21.565-37.155c-5.567-17.564-5.12-5.321-8.858-45.668
	c0.022-5.519,1.28-10.95,1.903-16.424c1.068-6.866,1.035-14.043,3.861-20.508c15.12-37.748,3.934-14.846,23.056-43.987
	c5.019-8.524,13.843-13.576,20.842-20.286c7.378-7.533,17.826-10.349,26.862-15.3c6.343-3.75,13.809-3.928,20.842-5.386
	c5.909-0.757,11.806-2.771,17.815-1.847c52.32,6.834,55.237,7.168,96.699,26.228c7.311,3.639,15.846,2.059,23.457,4.54
	c21.298,8.78,42.263,18.305,63.283,27.73c5.03,2.226,8.412,6.799,12.997,9.692c10.527-4.173,22.021-4.395,33.016-6.788
	c9.648-2.281,19.273,1.313,28.954,1.358c5.686-0.022,11.495,0.478,16.769,2.782c1.881-2.281,3.683-4.629,5.386-7.055
	c-2.303-3.661-4.573-8.379-2.114-12.552c2.804-4.362,2.214-9.614,2.17-14.555c-8.791-4.373-18.171-8.724-24.381-16.647
	C426.624,91.133,423.842,72.283,429.439,56.426 M1162.113,377.034c6.053,0.467,12.129,0.668,18.216,0.668
	c-0.067-1.914-0.1-3.828-0.123-5.731C1167.321,372.375,1167.995,370.899,1162.113,377.034 M867.121,566.159
	c7.366,3.728,15.534,5.464,23.268,8.279c0.2-0.59,0.612-1.758,0.823-2.337c-6.988-3.394-14.399-5.497-21.832-7.556
	C868.6,565.057,867.855,565.602,867.121,566.159 M904.064,658.773c0.267,0.846,0.801,2.548,1.068,3.394
	c1.324-0.568,2.648-1.124,4.006-1.658c-0.122-1.469-0.223-2.915-0.323-4.362C907.213,657.004,905.622,657.883,904.064,658.773
	 M420.459,726.64c14.182,4.197,15.781,2.129,17.515,6.732c6.365-0.356,12.73-0.679,19.073-1.302c0.045-0.734,0.145-2.214,0.2-2.949
	c4.228,0.011,8.412,0.79,12.519,1.792C462.234,720.392,464.162,725.304,420.459,726.64 M470.378,725.917
	c0.968,1.68,1.936,3.383,2.882,5.096c3.861-0.167,7.778-0.234,11.539-1.268C480.137,727.976,475.241,726.974,470.378,725.917
	 M387.522,741.941c-2.014,7.556-0.323,15.746,4.206,22.077c8.134-0.979,16.369-0.957,24.492-2.059
	c0.177-12.469,1.754-21.735,16.758-27.719c-8.557-1.936-17.003-4.34-25.549-6.309C398.716,727.319,389.77,733.395,387.522,741.941
	 M444.106,736.088c-6.02,0.234-12.541,1.079-17.07,5.453c-5.942,4.885-7.7,12.975-6.766,20.319
	c3.361-0.211,6.721-0.512,10.093-0.757c2.042-16.085,3.913-19.628,16.091-20.898c1.424,0.289,2.849,0.579,4.284,0.857
	c2.693,2.07,5.441,4.084,8.168,6.12c3.539-2.214,7.344-3.995,11.406-5.03c-0.156-2.326-0.3-4.64-0.456-6.944
	C461.264,734.452,452.674,735.554,444.106,736.088 M473.649,736.566c0.089,1.769,0.178,3.55,0.278,5.352
	c3.65-0.256,7.311-0.467,10.972-0.69c-0.011-0.512-0.033-1.524-0.045-2.036C481.116,738.324,477.377,737.434,473.649,736.566
	 M474.083,745.212c-0.011,1.78-0.011,3.583-0.011,5.386c2.849-1.703,5.809-3.171,8.824-4.54c0.434,0.679,1.313,2.047,1.747,2.726
	c0.401-0.445,1.224-1.324,1.625-1.758c-0.434-0.912-0.857-1.814-1.28-2.704C481.35,744.623,477.722,744.934,474.083,745.212
	 M462.043,749.352c1.558,1.669,3.105,3.361,4.618,5.096c0.801,0.022,2.381,0.056,3.171,0.078c0.935-2.915,0.746-5.976,0.523-8.969
	C467.496,746.648,464.736,747.939,462.043,749.352 M2527.478,808.729c0.2,0.59,0.612,1.758,0.823,2.337
	c2.526,0.056,5.219,0.512,7.622-0.645C2533.131,809.652,2530.293,809.185,2527.478,808.729 M2536.024,823.595
	c-1.869,0.389-2.103,3.828-0.044,4.117C2537.804,827.39,2537.838,823.907,2536.024,823.595 M2531.195,844.125
	c0.668,2.871,3.95,3.561,6.087,5.13c0.301-1.636,0.59-3.271,0.957-4.896C2535.857,844.192,2533.531,843.914,2531.195,844.125
	 M2534.243,862.141c-1.424,0.389-2.837,1.335-3.383,2.704C2531.595,867.215,2536.057,863.22,2534.243,862.141 M2527.678,881.325
	c0.868,1.858,1.714,3.728,2.604,5.619c0.679-1.636,1.224-3.305,1.914-4.93C2530.649,881.781,2529.158,881.559,2527.678,881.325
	 M2389.162,897.76c-0.534,1.591-0.011,2.103,1.558,1.547C2391.21,897.716,2390.687,897.204,2389.162,897.76 M2329.396,923.61
	c-0.045,2.659-0.045,5.319,0.033,8.001c1.168-1.102,2.348-2.214,3.561-3.316c-0.211-1.28-0.423-2.559-0.579-3.817
	C2331.377,924.177,2330.375,923.888,2329.396,923.61 M2469.414,957.293c4.841,1.335,10.104,1.792,14.366-1.413
	C2481.177,955.455,2466.985,952.26,2469.414,957.293 M2453.58,973.684c-0.812,0.901-1.602,1.814-2.359,2.737
	c11.376,1.792,8.329,2.26,15.467-1.447C2462.359,974.14,2457.986,973.406,2453.58,973.684 M192.389,984.923
	c0.478,1.97,0.99,3.95,1.547,5.92c1.424-1.18,2.86-2.326,4.284-3.472c-0.278-0.467-0.846-1.38-1.124-1.836
	c1.001-1.58,2.014-3.149,3.004-4.718C197.474,982.085,194.926,983.487,192.389,984.923 M2434.051,996.173
	c12.574,2.046,7.252,1.788,15.501-1.291C2444.711,993.68,2437.278,990.754,2434.051,996.173 M216.914,1014.355
	c-2.047,1.691-2.737,4.34-3.438,6.799c5.241-5.241,11.473-9.692,15.501-15.979C224.525,1007.612,220.686,1010.995,216.914,1014.355
	 M2419.307,1013.265c-0.946,0.579-3.361,1.257-2.092,2.682c2.726,0.779,5.597,1.424,8.49,1.491c2.247-0.556,4.239-1.78,6.343-2.771
	C2427.931,1013.599,2423.535,1011.918,2419.307,1013.265 M2398.331,1036.176c3.183,0.656,6.398,1.224,9.625,1.825
	c2.226-1.102,4.451-2.192,6.688-3.338C2409.314,1033.617,2402.137,1030.49,2398.331,1036.176 M286.806,1054.938
	c2.559,0.879,5.119,1.758,7.689,2.637c1.202-1.424,2.415-2.826,3.616-4.24C294.351,1053.891,290.578,1054.448,286.806,1054.938
	 M2379.96,1056.395c3.183,1.09,6.51,1.992,9.926,2.081c2.426-0.745,4.563-2.203,6.788-3.427
	C2391.165,1053.936,2384.222,1051.11,2379.96,1056.395 M2152.289,1072.953c0.234,0.111,0.701,0.312,0.935,0.423
	c4.429-3.694,6.309-10.148,6.777-15.857C2157.041,1062.471,2155.795,1068.302,2152.289,1072.953 M2361.465,1077.526
	c3.261,0.868,6.565,1.524,9.904,2.181c2.392-1.18,4.785-2.392,7.144-3.706C2372.882,1074.478,2365.616,1071.696,2361.465,1077.526
	 M2343.539,1093.94c3.427,1.391,7.133,2.214,10.883,1.758C2350.928,1094.385,2347.211,1094.018,2343.539,1093.94 M1429.965,1103.71
	c-0.022,2.604-0.011,5.208,0.067,7.834c1.046-2.303,2.103-4.596,3.138-6.899C1432.09,1104.322,1431.022,1104.01,1429.965,1103.71
	 M1901.585,1128.279c6.565-5.853,7.556-15.701,5.953-23.858C1902.397,1110.976,1899.092,1120.012,1901.585,1128.279
	 M1681.003,1150.201c-2.927,3.683-6.098,7.745-5.375,12.797c-0.734-0.111-2.192-0.334-2.927-0.445
	c-6.91,10.048-11.473,22.756-7.578,34.874c8.843-2.521,17.319-12.126,16.936-31.58c-1.458-0.69-2.871-1.335-4.228-2.081
	C1679.712,1159.459,1681.103,1154.93,1681.003,1150.201 M1106.708,1153.149c-4.162,0.879-8.29,1.881-12.474,2.637
	c0.701,5.13,4.484,8.602,8.357,11.606c1.502,0.211,3.016,0.434,4.562,0.69c3.928-2.47,6.588-6.298,8.513-10.438
	C1112.918,1155.831,1110.458,1151.87,1106.708,1153.149 M1031.953,1168.806c0.99,1.313,2.003,2.648,3.027,3.995
	c1.981-0.378,3.973-0.746,5.964-1.135c-0.501-1.48-1.001-2.927-1.502-4.362C1036.927,1167.749,1034.435,1168.261,1031.953,1168.806
	 M1097.461,1180.601c1.792-3.795,3.605-7.912,2.76-12.185C1097.94,1171.599,1098.252,1176.64,1097.461,1180.601 M1403.882,1218.023
	c-2.27,5.108-6.153,11.027-3.093,16.613C1403.236,1229.451,1404.227,1223.721,1403.882,1218.023 M1580.142,1232.645
	c-1.48,1.491,1.146,3.538,2.515,2.181C1583.926,1233.413,1581.389,1231.31,1580.142,1232.645 M1391.808,1233.435
	c-6.681,2.851-17.777,27.104-4.295,37.211c8.357,0.779,15.646-4.852,19.685-11.74c4.261-5.89,2.714-19.885-6.365-23.056
	C1398.207,1234.214,1394.979,1231.81,1391.808,1233.435 M776.153,1255.457c-5.33,8.223-14.199,13.108-20.697,20.252
	c1.235,4.262,2.927,8.379,4.362,12.585c8.653-8.08,24.647-20.836,28.42-26.283c3.004-4.151,5.875-8.401,9.08-12.407
	c-3.939-2.326-7.923-4.562-12.04-6.532C782.173,1247.144,779.179,1251.317,776.153,1255.457 M849.439,1260.642
	c-1.847,1.925-3.783,3.761-5.797,5.508c-12.641-0.979-23.579,7.255-31.814,15.979c-10.995,8.931-27.242,24.904-21.743,38.012
	c9.392,3.416,20.085,4.707,27.863,11.461c-0.089,8.401-2.036,16.658-2.493,25.048c3.205,0.846,6.32,2.192,9.648,2.548
	c6.421-6.877,11.473-15.033,18.26-21.554c9.381,2.404,18.973,5.074,26.973,10.783c-0.901,8.179-2.003,16.346-2.782,24.559
	c2.838,1.024,5.731,1.892,8.646,2.771c5.286-6.554,10.616-13.075,15.924-19.618c-3.402-5.303-18.793-40.766-20.241-44.666
	c-1.014-5.648-7.549-46.024-7.044-54.38C859.71,1258.283,854.58,1259.518,849.439,1260.642 M631.305,1264.626
	c1.58,0.701,3.138,1.391,4.74,2.125c1.335-2.882,2.348-5.909,3.049-8.991C636.39,1259.919,633.853,1262.289,631.305,1264.626
	 M998.226,1261.087c0.178,1.369,1.858,2.771,3.271,2.181C1002.732,1261.61,998.96,1258.951,998.226,1261.087 M707.918,1305.341
	c-0.323,2.47-0.701,4.918-1.057,7.411c7.611-2.404,15.957-2.96,22.856-7.266c-0.879-3.45-1.981-6.832-3.171-10.182
	C720.314,1298.62,714.216,1302.159,707.918,1305.341 M1277.606,1296.729c-1.447,8.335-5.041,16.001-8.557,23.624
	c10.293-2.771,20.575-5.597,30.857-8.424C1292.495,1306.833,1285.028,1301.814,1277.606,1296.729 M1063.077,1319.484
	c0.935-3.917,1.847-7.867,1.947-11.906C1063.289,1311.272,1061.442,1315.412,1063.077,1319.484 M1053.819,1320.375
	c-8.662,7.227-13.335,29.09-3.772,37.311c3.828,3.082,8.936,2.036,13.409,1.491c4.295-9.28,6.799-20.364,3.082-30.234
	c-1.157-3.483-5.13-4.941-6.22-8.412C1058.214,1320.264,1055.666,1318.672,1053.819,1320.375 M772.147,1331.302
	c-3.205,0.134-6.365-0.745-9.547-0.99c-0.378,3.004-0.746,6.02-1.113,9.047c3.36,1.157,6.754,2.259,10.115,3.494
	c5.397-6.031,10.582-12.262,15.479-18.705C782.195,1326.684,777.688,1330.312,772.147,1331.302 M917.684,1385.716
	c0.078,4.629,5.453,4.34,8.713,5.564C923.715,1389.088,920.778,1387.229,917.684,1385.716 M1329.193,1415.838
	c1.335,0.901,4.54,1.246,5.408-0.178C1333.21,1414.737,1329.85,1413.969,1329.193,1415.838 M1233.797,1444.67
	c3.238,0.434,6.521,0.479,9.77,0.022C1240.373,1443.568,1237.001,1443.668,1233.797,1444.67 M1185.203,1460.783
	c3.416-0.212,6.821-0.612,10.215-1.135c-1.769-0.479-3.583-0.879-5.352-1.213
	C1188.407,1459.136,1186.805,1459.981,1185.203,1460.783 M1134.706,1476.116c3.639,0.289,7.311-0.044,10.905-0.768
	C1142.05,1473.557,1138.11,1474.436,1134.706,1476.116z"/>
</svg>
